<mxfile host="app.diagrams.net" modified="2020-07-19T16:50:42.766Z" agent="5.0 (Windows NT 10.0; Win64; x64) AppleWebKit/537.36 (KHTML, like Gecko) Chrome/83.0.4103.106 Safari/537.36" etag="22gF3-tQDKu4REMwcGOR" version="13.4.6" type="github">
  <diagram id="62dKW7X2--XVTqQYggtv" name="Page-1">
    <mxGraphModel dx="1422" dy="713" grid="1" gridSize="10" guides="1" tooltips="1" connect="1" arrows="1" fold="1" page="1" pageScale="1" pageWidth="827" pageHeight="1169" math="0" shadow="0">
      <root>
        <mxCell id="0" />
        <mxCell id="1" parent="0" />
        <mxCell id="kaQD3KZRz5mQvGiimep2-1" value="" style="shape=flexArrow;endArrow=classic;html=1;fillColor=#d5e8d4;strokeColor=#82b366;" edge="1" parent="1">
          <mxGeometry width="50" height="50" relative="1" as="geometry">
            <mxPoint x="80" y="40" as="sourcePoint" />
            <mxPoint x="80" y="670" as="targetPoint" />
            <Array as="points">
              <mxPoint x="80" y="370" />
            </Array>
          </mxGeometry>
        </mxCell>
        <mxCell id="kaQD3KZRz5mQvGiimep2-2" value="" style="shape=flexArrow;endArrow=classic;html=1;endWidth=77;endSize=5.49;fillColor=#f8cecc;strokeColor=#b85450;" edge="1" parent="1">
          <mxGeometry width="50" height="50" relative="1" as="geometry">
            <mxPoint x="90" y="80" as="sourcePoint" />
            <mxPoint x="150" y="630" as="targetPoint" />
            <Array as="points">
              <mxPoint x="150" y="150" />
            </Array>
          </mxGeometry>
        </mxCell>
        <mxCell id="kaQD3KZRz5mQvGiimep2-3" value="" style="shape=flexArrow;endArrow=classic;html=1;fillColor=#dae8fc;strokeColor=#6c8ebf;" edge="1" parent="1">
          <mxGeometry width="50" height="50" relative="1" as="geometry">
            <mxPoint x="80" y="170" as="sourcePoint" />
            <mxPoint x="230" y="520" as="targetPoint" />
            <Array as="points">
              <mxPoint x="230" y="180" />
            </Array>
          </mxGeometry>
        </mxCell>
        <mxCell id="kaQD3KZRz5mQvGiimep2-4" value="" style="shape=flexArrow;endArrow=classic;html=1;fillColor=#dae8fc;strokeColor=#6c8ebf;" edge="1" parent="1">
          <mxGeometry width="50" height="50" relative="1" as="geometry">
            <mxPoint x="80" y="130" as="sourcePoint" />
            <mxPoint x="330" y="410" as="targetPoint" />
            <Array as="points">
              <mxPoint x="320" y="140" />
            </Array>
          </mxGeometry>
        </mxCell>
        <mxCell id="kaQD3KZRz5mQvGiimep2-5" value="" style="shape=flexArrow;endArrow=classic;html=1;fillColor=#dae8fc;strokeColor=#6c8ebf;" edge="1" parent="1">
          <mxGeometry width="50" height="50" relative="1" as="geometry">
            <mxPoint x="320" y="400" as="sourcePoint" />
            <mxPoint x="80" y="490" as="targetPoint" />
          </mxGeometry>
        </mxCell>
        <mxCell id="kaQD3KZRz5mQvGiimep2-6" value="" style="shape=flexArrow;endArrow=classic;html=1;fillColor=#dae8fc;strokeColor=#6c8ebf;" edge="1" parent="1">
          <mxGeometry width="50" height="50" relative="1" as="geometry">
            <mxPoint x="230" y="510" as="sourcePoint" />
            <mxPoint x="80" y="585" as="targetPoint" />
          </mxGeometry>
        </mxCell>
        <mxCell id="kaQD3KZRz5mQvGiimep2-7" value="" style="shape=flexArrow;endArrow=classic;html=1;fillColor=#f8cecc;strokeColor=#b85450;" edge="1" parent="1">
          <mxGeometry width="50" height="50" relative="1" as="geometry">
            <mxPoint x="150" y="280" as="sourcePoint" />
            <mxPoint x="70" y="325" as="targetPoint" />
          </mxGeometry>
        </mxCell>
        <mxCell id="kaQD3KZRz5mQvGiimep2-8" value="Master STream" style="text;html=1;strokeColor=none;fillColor=none;align=center;verticalAlign=middle;whiteSpace=wrap;rounded=0;rotation=90;" vertex="1" parent="1">
          <mxGeometry x="-50" y="370" width="210" height="20" as="geometry" />
        </mxCell>
        <mxCell id="kaQD3KZRz5mQvGiimep2-9" value="F1 Feature Stream" style="text;html=1;strokeColor=none;fillColor=none;align=center;verticalAlign=middle;whiteSpace=wrap;rounded=0;rotation=90;" vertex="1" parent="1">
          <mxGeometry x="240" y="200" width="210" height="20" as="geometry" />
        </mxCell>
        <mxCell id="kaQD3KZRz5mQvGiimep2-10" value="F2 Feature Stream" style="text;html=1;strokeColor=none;fillColor=none;align=center;verticalAlign=middle;whiteSpace=wrap;rounded=0;rotation=90;" vertex="1" parent="1">
          <mxGeometry x="150" y="270" width="210" height="20" as="geometry" />
        </mxCell>
        <mxCell id="kaQD3KZRz5mQvGiimep2-11" value="Release Stream" style="text;html=1;strokeColor=none;fillColor=none;align=center;verticalAlign=middle;whiteSpace=wrap;rounded=0;rotation=90;" vertex="1" parent="1">
          <mxGeometry x="70" y="290" width="210" height="20" as="geometry" />
        </mxCell>
        <mxCell id="kaQD3KZRz5mQvGiimep2-13" value="Deployement will be done from release Stream" style="shape=note;whiteSpace=wrap;html=1;backgroundOutline=1;darkOpacity=0.05;" vertex="1" parent="1">
          <mxGeometry x="180" y="560" width="80" height="100" as="geometry" />
        </mxCell>
        <mxCell id="kaQD3KZRz5mQvGiimep2-14" value="For every Feture, Feature Branch will be created from Master.This will be rebased contineuously and after QA is done it will be delivered to Master." style="shape=note;whiteSpace=wrap;html=1;backgroundOutline=1;darkOpacity=0.05;" vertex="1" parent="1">
          <mxGeometry x="370" y="200" width="150" height="220" as="geometry" />
        </mxCell>
        <mxCell id="kaQD3KZRz5mQvGiimep2-15" value="" style="shape=flexArrow;endArrow=classic;html=1;fillColor=#dae8fc;strokeColor=#6c8ebf;" edge="1" parent="1">
          <mxGeometry width="50" height="50" relative="1" as="geometry">
            <mxPoint x="80" y="380" as="sourcePoint" />
            <mxPoint x="330" y="380" as="targetPoint" />
          </mxGeometry>
        </mxCell>
        <mxCell id="kaQD3KZRz5mQvGiimep2-17" value="Rebase From Master" style="edgeLabel;html=1;align=center;verticalAlign=middle;resizable=0;points=[];" vertex="1" connectable="0" parent="kaQD3KZRz5mQvGiimep2-15">
          <mxGeometry x="0.432" y="1" relative="1" as="geometry">
            <mxPoint x="-69" y="1" as="offset" />
          </mxGeometry>
        </mxCell>
        <mxCell id="kaQD3KZRz5mQvGiimep2-16" value="" style="shape=flexArrow;endArrow=classic;html=1;fillColor=#dae8fc;strokeColor=#6c8ebf;" edge="1" parent="1">
          <mxGeometry width="50" height="50" relative="1" as="geometry">
            <mxPoint x="80" y="510" as="sourcePoint" />
            <mxPoint x="230" y="510" as="targetPoint" />
          </mxGeometry>
        </mxCell>
        <mxCell id="kaQD3KZRz5mQvGiimep2-18" value="Rebase from Master" style="edgeLabel;html=1;align=center;verticalAlign=middle;resizable=0;points=[];" vertex="1" connectable="0" parent="kaQD3KZRz5mQvGiimep2-16">
          <mxGeometry x="0.2533" y="1" relative="1" as="geometry">
            <mxPoint x="-34" as="offset" />
          </mxGeometry>
        </mxCell>
        <mxCell id="kaQD3KZRz5mQvGiimep2-20" value="" style="shape=flexArrow;endArrow=classic;html=1;fillColor=#dae8fc;strokeColor=#6c8ebf;" edge="1" parent="1">
          <mxGeometry width="50" height="50" relative="1" as="geometry">
            <mxPoint x="80" y="350" as="sourcePoint" />
            <mxPoint x="330" y="350" as="targetPoint" />
          </mxGeometry>
        </mxCell>
        <mxCell id="kaQD3KZRz5mQvGiimep2-21" value="Rebase From Master" style="edgeLabel;html=1;align=center;verticalAlign=middle;resizable=0;points=[];" vertex="1" connectable="0" parent="kaQD3KZRz5mQvGiimep2-20">
          <mxGeometry x="0.432" y="1" relative="1" as="geometry">
            <mxPoint x="-69" y="1" as="offset" />
          </mxGeometry>
        </mxCell>
        <mxCell id="kaQD3KZRz5mQvGiimep2-22" value="" style="shape=flexArrow;endArrow=classic;html=1;fillColor=#dae8fc;strokeColor=#6c8ebf;" edge="1" parent="1">
          <mxGeometry width="50" height="50" relative="1" as="geometry">
            <mxPoint x="80" y="230" as="sourcePoint" />
            <mxPoint x="330" y="230" as="targetPoint" />
          </mxGeometry>
        </mxCell>
        <mxCell id="kaQD3KZRz5mQvGiimep2-23" value="Rebase From Master" style="edgeLabel;html=1;align=center;verticalAlign=middle;resizable=0;points=[];" vertex="1" connectable="0" parent="kaQD3KZRz5mQvGiimep2-22">
          <mxGeometry x="0.432" y="1" relative="1" as="geometry">
            <mxPoint x="-69" y="1" as="offset" />
          </mxGeometry>
        </mxCell>
      </root>
    </mxGraphModel>
  </diagram>
</mxfile>
